<svg width="12" height="16" viewBox="0 0 12 16" fill="none" xmlns="http://www.w3.org/2000/svg">
<path fill-rule="evenodd" clip-rule="evenodd" d="M7.5 0C7.77614 0 8 0.223858 8 0.5C8 0.776142 8.22386 1 8.5 1C8.77614 1 9 1.22386 9 1.5V2C9 2.27614 8.77614 2.5 8.5 2.5H3.5C3.22386 2.5 3 2.27614 3 2V1.5C3 1.22386 3.22386 1 3.5 1C3.77614 1 4 0.776142 4 0.5C4 0.223858 4.22386 0 4.5 0H7.5ZM1.5 1H2.08535C2.03008 1.15639 2 1.32468 2 1.5V2C2 2.82843 2.67157 3.5 3.5 3.5H8.5C9.32843 3.5 10 2.82843 10 2V1.5C10 1.32468 9.96992 1.15639 9.91465 1H10.5C11.3284 1 12 1.67157 12 2.5V14.5C12 15.3284 11.3284 16 10.5 16H1.5C0.671572 16 0 15.3284 0 14.5V2.5C0 1.67157 0.671573 1 1.5 1Z" fill="white"/>
</svg>
